Coordinates
version=1
nRows=15
nColumns=46
inDegrees=yes

Units are S.I. units (second, meters, Newtons, ...)
Angles are in degrees.

endheader
time	pelvis_tilt	pelvis_list	pelvis_rotation	pelvis_tx	pelvis_ty	pelvis_tz	bb_angle	bb_tx	bb_ty	bb_tz	hip_flexion_r	hip_adduction_r	hip_rotation_r	knee_angle_r	knee_angle_r_beta	ankle_angle_r	subtalar_angle_r	mtp_angle_r	crank_angle_r	hip_flexion_l	hip_adduction_l	hip_rotation_l	knee_angle_l	knee_angle_l_beta	ankle_angle_l	subtalar_angle_l	mtp_angle_l	crank_angle_l	lumbar_extension	lumbar_bending	lumbar_rotation	arm_flex_r	arm_add_r	arm_rot_r	elbow_flex_r	pro_sup_r	wrist_flex_r	wrist_dev_r	arm_flex_l	arm_add_l	arm_rot_l	elbow_flex_l	pro_sup_l	wrist_flex_l	wrist_dev_l
      0.00000000	    -23.81540040	     -1.33093617	     -2.93899541	      0.15508181	      1.03504396	     -0.22222572	      0.00000000	      0.50000000	      0.00000000	      0.25000000	     91.25264948	     -2.83748735	      0.67686796	     84.42846304	      1.47355466	     -9.21368396	     -4.33545718	      0.00000000	      0.00000000	     61.17691110	     -7.16403363	      2.89894176	     78.42311687	      1.36874160	    -16.14241156	    -10.72513144	      0.00000000	      0.00000000	    -41.74274341	     -0.34814732	      2.16407824	     87.59313878	     -5.27738239	     41.82990024	     28.94077346	     40.67249292	      0.00000000	      0.00000000	     86.43031868	     -8.92064767	     39.76044087	     30.48232111	     40.65569294	      0.00000000	      0.00000000
      0.00500000	    -23.85534891	     -1.34992336	     -2.87476946	      0.15500526	      1.03509642	     -0.22238402	      0.00000000	      0.50000000	      0.00000000	      0.25000000	     91.27467101	     -2.90734985	      0.63380250	     84.39178331	      1.47291448	     -9.32177622	     -4.50777295	      0.00000000	      0.00000000	     61.24318989	     -7.10624443	      2.92336473	     78.39575597	      1.36826406	    -16.37843137	    -11.02244048	      0.00000000	      0.00000000	    -41.74955860	     -0.28600213	      2.14130953	     87.48193150	     -5.31587377	     41.18332913	     29.35515476	     40.75268914	      0.00000000	      0.00000000	     86.29700611	     -8.96242858	     39.15653398	     30.92625513	     40.75337957	      0.00000000	      0.00000000
      0.01000000	    -23.77459943	     -1.34378407	     -2.88285342	      0.15510935	      1.03514294	     -0.22239513	      0.00000000	      0.50000000	      0.00000000	      0.25000000	     91.20705147	     -2.91333399	      0.65930436	     84.44770818	      1.47389055	     -9.16321635	     -4.27014335	      0.00000000	      0.00000000	     61.13603093	     -7.10872932	      2.93242756	     78.40905563	      1.36849618	    -16.17636593	    -10.77457475	      0.00000000	      0.00000000	    -41.79247293	     -0.28721397	      2.10543842	     87.57448393	     -4.97570259	     41.00041154	     28.72108649	     40.57371986	      0.00000000	      0.00000000	     86.36342704	     -8.75672758	     38.93156023	     30.43859611	     40.60351811	      0.00000000	      0.00000000
      0.01500000	    -23.71657074	     -1.29387394	     -2.84810039	      0.15501859	      1.03533025	     -0.22236490	      0.00000000	      0.50000000	      0.00000000	      0.25000000	     91.14538616	     -2.93895608	      0.72640609	     84.40682007	      1.47317692	     -9.19252267	     -4.23527562	      0.00000000	      0.00000000	     61.05078338	     -7.05603330	      2.90023737	     78.33283170	      1.36716583	    -16.20747031	    -10.64633497	      0.00000000	      0.00000000	    -41.85738794	     -0.34998244	      2.07112659	     87.60227763	     -5.02190931	     41.10671527	     28.65742874	     40.64237782	      0.00000000	      0.00000000	     86.45416819	     -8.75597856	     38.97721423	     30.27176930	     40.64941241	      0.00000000	      0.00000000
      0.02000000	    -23.74026663	     -1.32106333	     -2.85415620	      0.15499162	      1.03546438	     -0.22228087	      0.00000000	      0.50000000	      0.00000000	      0.25000000	     91.16578106	     -2.92980408	      0.72833014	     84.42761201	      1.47353981	     -9.12865471	     -4.15284046	      0.00000000	      0.00000000	     61.07236656	     -7.09810221	      2.90337892	     78.31537464	      1.36686114	    -16.24577574	    -10.69528531	      0.00000000	      0.00000000	    -41.82599432	     -0.32181470	      2.05651971	     87.62853135	     -4.99812076	     41.29987751	     28.61378580	     40.68058078	      0.00000000	      0.00000000	     86.40443253	     -8.84771012	     38.87676954	     30.39717817	     40.69219376	      0.00000000	      0.00000000
      0.02500000	    -23.74172946	     -1.33649321	     -2.86892571	      0.15502949	      1.03552147	     -0.22226336	      0.00000000	      0.50000000	      0.00000000	      0.25000000	     91.15528312	     -2.91053550	      0.69999013	     84.40736217	      1.47318638	     -9.17287439	     -4.23406496	      0.00000000	      0.00000000	     61.07030261	     -7.13631845	      2.90839150	     78.31450475	      1.36684596	    -16.22424891	    -10.63545357	      0.00000000	      0.00000000	    -41.81717698	     -0.32455220	      2.10191527	     87.59507108	     -4.99162179	     41.10110806	     28.59426950	     40.74996345	      0.00000000	      0.00000000	     86.42122492	     -8.74365150	     38.77127726	     30.26980937	     40.76268704	      0.00000000	      0.00000000
      0.03000000	    -23.72587264	     -1.34745706	     -2.85320854	      0.15500446	      1.03552585	     -0.22228939	      0.00000000	      0.50000000	      0.00000000	      0.25000000	     91.14583869	     -2.92621398	      0.68653684	     84.41833031	      1.47337781	     -9.18654523	     -4.25730775	      0.00000000	      0.00000000	     61.05634607	     -7.12210679	      2.92388668	     78.30953449	      1.36675921	    -16.23202877	    -10.67099853	      0.00000000	      0.00000000	    -41.85830895	     -0.32517559	      2.13633657	     87.64071317	     -5.57659707	     42.48630570	     29.09055746	     40.98769701	      0.00000000	      0.00000000	     86.53374370	     -9.15911767	     40.26534957	     30.54873617	     41.02605648	      0.00000000	      0.00000000
      0.03500000	    -23.73742290	     -1.32797269	     -2.84804024	      0.15501469	      1.03552850	     -0.22230802	      0.00000000	      0.50000000	      0.00000000	      0.25000000	     91.16318092	     -2.93543944	      0.70318377	     84.41652433	      1.47334629	     -9.23304160	     -4.24258659	      0.00000000	      0.00000000	     61.06347388	     -7.10468965	      2.91264241	     78.29814862	      1.36656049	    -16.25840724	    -10.67529879	      0.00000000	      0.00000000	    -41.84433157	     -0.33941027	      2.10199786	     87.64827109	     -5.58147266	     42.58281442	     29.06840253	     41.10767682	      0.00000000	      0.00000000	     86.54272261	     -9.17088370	     40.27667983	     30.52358536	     41.17557664	      0.00000000	      0.00000000
      0.04000000	    -23.72818286	     -1.23856110	     -2.85156217	      0.15505112	      1.03560957	     -0.22229559	      0.00000000	      0.50000000	      0.00000000	      0.25000000	     91.17064414	     -2.94196494	      0.79224784	     84.42399613	      1.47347670	     -9.22777180	     -4.29780433	      0.00000000	      0.00000000	     61.01064163	     -7.04998362	      2.80369964	     78.23776004	      1.36550651	    -16.36571108	    -10.88010998	      0.00000000	      0.00000000	    -41.85907817	     -0.45668126	      2.01121363	     87.52425908	     -5.27984079	     41.44600981	     28.97198951	     40.89572040	      0.00000000	      0.00000000	     86.43924740	     -8.89052086	     39.16913359	     30.51955642	     40.98169558	      0.00000000	      0.00000000
      0.04500000	    -23.70283509	     -1.33471872	     -2.83791886	      0.15504986	      1.03559479	     -0.22236747	      0.00000000	      0.50000000	      0.00000000	      0.25000000	     91.12618585	     -2.95128961	      0.70368995	     84.43159498	      1.47360933	     -9.16542327	     -4.23949019	      0.00000000	      0.00000000	     61.02148194	     -7.10449225	      2.89327782	     78.29463313	      1.36649913	    -16.27137162	    -10.73799807	      0.00000000	      0.00000000	    -41.87474535	     -0.31422233	      2.07297120	     87.60521106	     -5.09162244	     41.25276735	     28.77838231	     40.82904397	      0.00000000	      0.00000000	     86.41351353	     -8.79113780	     38.96379916	     30.35642144	     40.92073668	      0.00000000	      0.00000000
      0.05000000	    -23.71258664	     -1.34776695	     -2.81260026	      0.15499730	      1.03554070	     -0.22230316	      0.00000000	      0.50000000	      0.00000000	      0.25000000	     91.13813284	     -2.95542997	      0.69582056	     84.43854619	      1.47373065	     -9.16754122	     -4.27515738	      0.00000000	      0.00000000	     61.04319627	     -7.09973010	      2.93763238	     78.29750622	      1.36654928	    -16.21619476	    -10.64548769	      0.00000000	      0.00000000	    -41.87065899	     -0.31403559	      2.08102092	     87.64750041	     -5.55547781	     42.54161352	     29.02989631	     41.09985108	      0.00000000	      0.00000000	     86.55391632	     -9.20555714	     40.32580546	     30.53834143	     41.18898619	      0.00000000	      0.00000000
      0.05500000	    -23.75478267	     -1.30076008	     -2.83078201	      0.15507603	      1.03556970	     -0.22239193	      0.00000000	      0.50000000	      0.00000000	      0.25000000	     91.17785550	     -2.96367398	      0.74025260	     84.42443238	      1.47348431	     -9.16466944	     -4.22756022	      0.00000000	      0.00000000	     61.05649783	     -7.06872028	      2.88035024	     78.26196014	      1.36592888	    -16.27800354	    -10.74154796	      0.00000000	      0.00000000	    -41.80881541	     -0.34934551	      2.03126968	     87.58771795	     -5.02256531	     41.20406730	     28.60819518	     40.93468764	      0.00000000	      0.00000000	     86.40455131	     -8.75904322	     38.76182539	     30.32739385	     41.00355007	      0.00000000	      0.00000000
      0.06000000	    -23.77774178	     -1.34068414	     -2.85398929	      0.15506876	      1.03551287	     -0.22235880	      0.00000000	      0.50000000	      0.00000000	      0.25000000	     91.18769389	     -2.92643366	      0.70331463	     84.41247281	      1.47327558	     -9.15223339	     -4.23717644	      0.00000000	      0.00000000	     61.09127643	     -7.12215520	      2.90411365	     78.28755978	      1.36637568	    -16.22913448	    -10.69553431	      0.00000000	      0.00000000	    -41.78033094	     -0.33860971	      2.08995142	     87.56887912	     -5.13611776	     41.34441046	     28.66570429	     41.03800940	      0.00000000	      0.00000000	     86.45218961	     -8.77802838	     39.04856932	     30.20641639	     41.10526035	      0.00000000	      0.00000000
      0.06500000	    -23.76953702	     -1.36342949	     -2.85611548	      0.15507281	      1.03551087	     -0.22237157	      0.00000000	      0.50000000	      0.00000000	      0.25000000	     91.17576455	     -2.92342084	      0.67907546	     84.41190770	      1.47326572	     -9.16648471	     -4.26404549	      0.00000000	      0.00000000	     61.08514362	     -7.14232800	      2.92282583	     78.29602226	      1.36652338	    -16.19654678	    -10.66141996	      0.00000000	      0.00000000	    -41.80546450	     -0.32123741	      2.12715949	     87.61775468	     -5.61304784	     42.61197289	     29.06091096	     41.19000916	      0.00000000	      0.00000000	     86.51831517	     -9.16466383	     40.25756588	     30.52320742	     41.29449663	      0.00000000	      0.00000000
      0.07000000	    -23.77510262	     -1.33309063	     -2.86308145	      0.15509532	      1.03552214	     -0.22237970	      0.00000000	      0.50000000	      0.00000000	      0.25000000	     91.18254478	     -2.91980550	      0.71498950	     84.41142968	      1.47325737	     -9.14829399	     -4.23749214	      0.00000000	      0.00000000	     61.07584393	     -7.12568490	      2.88559799	     78.27973558	      1.36623912	    -16.21736714	    -10.72090774	      0.00000000	      0.00000000	    -41.79030250	     -0.34803212	      2.09067567	     87.55541835	     -5.17159932	     41.30906497	     28.73627714	     41.23649400	      0.00000000	      0.00000000	     86.43639636	     -8.78353123	     39.07478935	     30.38322156	     41.39410342	      0.00000000	      0.00000000
